# xmcd
#
# Track frame offsets: 
#        150
#        4698
#        24794
#        40094
#        41969
#        61168
#        82318
#        100243
#        101968
#        120343
#        135418
#        154468
#        173517
#        175092
#
# Disc length: 2613 seconds
#
# Revision: 12
# Processed by: cddbd v1.5.2PL0 Copyright (c) Steve Scherf et al.
# Submitted via: ExactAudioCopy v0.95a5
#
DISCID=ab0a330e
DTITLE=林俊杰 - 江南
DYEAR=2004
DGENRE=Pop
TTITLE0=一开始
TTITLE1=江南
TTITLE2=子弹列车
TTITLE3=起床了
TTITLE4=豆浆油条
TTITLE5=害怕
TTITLE6=天使心
TTITLE7=森林浴
TTITLE8=精灵
TTITLE9=相信无限
TTITLE10=美人鱼
TTITLE11=距离
TTITLE12=未完成
TTITLE13=Endless Road
EXTD=YEAR: 2004
EXTT0=
EXTT1=
EXTT2=
EXTT3=
EXTT4=
EXTT5=
EXTT6=
EXTT7=
EXTT8=
EXTT9=
EXTT10=
EXTT11=
EXTT12=
EXTT13=
PLAYORDER=
